<svg xmlns="http://www.w3.org/2000/svg" viewBox="0 0 800 600">
<defs>
  <radialGradient id="bg" cx="50%" cy="40%" r="78%">
    <stop offset="0%" stop-color="#281C15"/>
    <stop offset="55%" stop-color="#150E0A"/>
    <stop offset="100%" stop-color="#0A0605"/>
  </radialGradient>
  <radialGradient id="vig" cx="50%" cy="42%" r="72%">
    <stop offset="0%" stop-color="#000" stop-opacity="0"/>
    <stop offset="70%" stop-color="#000" stop-opacity="0"/>
    <stop offset="100%" stop-color="#000" stop-opacity="0.42"/>
  </radialGradient>
  <linearGradient id="tray" x1="0" y1="0" x2="0" y2="1">
    <stop offset="0%" stop-color="#323236"/>
    <stop offset="10%" stop-color="#17171A"/>
    <stop offset="100%" stop-color="#060607"/>
  </linearGradient>
  <linearGradient id="trayIn" x1="0" y1="0" x2="0" y2="1">
    <stop offset="0%" stop-color="#0C0C0E"/>
    <stop offset="18%" stop-color="#1C1C20"/>
    <stop offset="100%" stop-color="#0A0A0C"/>
  </linearGradient>
  <linearGradient id="meat" x1="0" y1="0" x2="0.8" y2="1">
    <stop offset="0%" stop-color="#A84838"/>
    <stop offset="55%" stop-color="#77241B"/>
    <stop offset="100%" stop-color="#4C130E"/>
  </linearGradient>
  <linearGradient id="meatDeep" x1="0" y1="0" x2="0.8" y2="1">
    <stop offset="0%" stop-color="#8E3325"/>
    <stop offset="100%" stop-color="#3E0F0A"/>
  </linearGradient>
  <linearGradient id="fat" x1="0" y1="0" x2="0" y2="1">
    <stop offset="0%" stop-color="#F0E4D1"/>
    <stop offset="100%" stop-color="#D3BEA0"/>
  </linearGradient>
  <linearGradient id="chick" x1="0" y1="0" x2="0.7" y2="1">
    <stop offset="0%" stop-color="#E7C69C"/>
    <stop offset="60%" stop-color="#CBA070"/>
    <stop offset="100%" stop-color="#A97E4E"/>
  </linearGradient>
  <linearGradient id="gold" x1="0" y1="0" x2="0" y2="1">
    <stop offset="0%" stop-color="#E7CD92"/>
    <stop offset="100%" stop-color="#A57C3D"/>
  </linearGradient>
  <linearGradient id="boxTop" x1="0" y1="0" x2="0" y2="1">
    <stop offset="0%" stop-color="#37373E"/>
    <stop offset="100%" stop-color="#1C1C22"/>
  </linearGradient>
  <linearGradient id="boxFront" x1="0" y1="0" x2="0" y2="1">
    <stop offset="0%" stop-color="#1B1B20"/>
    <stop offset="100%" stop-color="#0B0B0E"/>
  </linearGradient>
  <linearGradient id="boxSide" x1="0" y1="0" x2="1" y2="0">
    <stop offset="0%" stop-color="#101014"/>
    <stop offset="100%" stop-color="#060608"/>
  </linearGradient>
  <linearGradient id="glossV" x1="0" y1="0" x2="0" y2="1">
    <stop offset="0%" stop-color="#FFF" stop-opacity="0.10"/>
    <stop offset="100%" stop-color="#FFF" stop-opacity="0"/>
  </linearGradient>
  <filter id="blurL" x="-60%" y="-60%" width="220%" height="220%"><feGaussianBlur stdDeviation="16"/></filter>
  <filter id="blurS" x="-60%" y="-60%" width="220%" height="220%"><feGaussianBlur stdDeviation="6"/></filter>
</defs>
<rect width="800" height="600" fill="url(#bg)"/>
<ellipse cx="400" cy="250" rx="480" ry="320" fill="#C9A45C" opacity="0.045"/>
<ellipse cx="400" cy="452" rx="430" ry="115" fill="#33221668" filter="url(#blurL)"/>
<g transform="translate(0 -58)">
<ellipse cx="400" cy="432" rx="244.4" ry="26" fill="#000" opacity="0.55" filter="url(#blurL)"/>
<rect x="165" y="182" width="470" height="236" rx="26" fill="url(#tray)"/>
<rect x="166.5" y="183.5" width="467" height="233" rx="25" fill="none" stroke="#4A4A52" stroke-opacity="0.55" stroke-width="1.6"/>
<rect x="180" y="195" width="440" height="209" rx="15" fill="url(#trayIn)"/>
<rect x="180" y="195" width="440" height="14" rx="7" fill="#000" opacity="0.35"/>
<path d="M191,195 H609" stroke="#5A5A64" stroke-opacity="0.35" stroke-width="1.4"/>
<g transform="translate(346 298) rotate(-14)">
  <ellipse cx="0" cy="46" rx="60" ry="12" fill="#000" opacity="0.35" filter="url(#blurS)"/>
  <g transform="rotate(-16)">
    <rect x="-5.5" y="-84" width="11" height="54" rx="5.5" fill="url(#fat)"/>
    <rect x="-5.5" y="-84" width="11" height="11" rx="5.5" fill="#F7EFE1"/>
    <path d="M-14,-32 C-6,-40 6,-40 14,-32" fill="none" stroke="url(#fat)" stroke-width="8" stroke-linecap="round"/>
  </g>
  <ellipse cx="0" cy="6" rx="51" ry="36" fill="url(#meatDeep)"/>
  <path d="M-46,22 C-24,40 26,40 46,20 C34,44 -30,46 -46,22 Z" fill="#2A0A06" opacity="0.4"/>
  <ellipse cx="0" cy="6" rx="51" ry="36" fill="none" stroke="url(#fat)" stroke-width="5.5" opacity="0.75"/>
  <path d="M-26,4 C-12,-4 6,10 24,2" fill="none" stroke="#EADBC6" stroke-width="2.6" stroke-linecap="round" opacity="0.3"/>
  <path d="M-48,-8 C-36,-24 -12,-32 14,-30" fill="none" stroke="#F4E2CC" stroke-width="2" stroke-linecap="round" opacity="0.25"/>
  <ellipse cx="-14" cy="-4" rx="22" ry="11" fill="#FFF" opacity="0.09"/>
</g>
<g transform="translate(410 310) rotate(0)">
  <ellipse cx="0" cy="46" rx="60" ry="12" fill="#000" opacity="0.35" filter="url(#blurS)"/>
  <g transform="rotate(-16)">
    <rect x="-5.5" y="-84" width="11" height="54" rx="5.5" fill="url(#fat)"/>
    <rect x="-5.5" y="-84" width="11" height="11" rx="5.5" fill="#F7EFE1"/>
    <path d="M-14,-32 C-6,-40 6,-40 14,-32" fill="none" stroke="url(#fat)" stroke-width="8" stroke-linecap="round"/>
  </g>
  <ellipse cx="0" cy="6" rx="51" ry="36" fill="url(#meatDeep)"/>
  <path d="M-46,22 C-24,40 26,40 46,20 C34,44 -30,46 -46,22 Z" fill="#2A0A06" opacity="0.4"/>
  <ellipse cx="0" cy="6" rx="51" ry="36" fill="none" stroke="url(#fat)" stroke-width="5.5" opacity="0.75"/>
  <path d="M-26,4 C-12,-4 6,10 24,2" fill="none" stroke="#EADBC6" stroke-width="2.6" stroke-linecap="round" opacity="0.3"/>
  <path d="M-48,-8 C-36,-24 -12,-32 14,-30" fill="none" stroke="#F4E2CC" stroke-width="2" stroke-linecap="round" opacity="0.25"/>
  <ellipse cx="-14" cy="-4" rx="22" ry="11" fill="#FFF" opacity="0.09"/>
</g>
<g transform="translate(474 298) rotate(13)">
  <ellipse cx="0" cy="46" rx="60" ry="12" fill="#000" opacity="0.35" filter="url(#blurS)"/>
  <g transform="rotate(-16)">
    <rect x="-5.5" y="-84" width="11" height="54" rx="5.5" fill="url(#fat)"/>
    <rect x="-5.5" y="-84" width="11" height="11" rx="5.5" fill="#F7EFE1"/>
    <path d="M-14,-32 C-6,-40 6,-40 14,-32" fill="none" stroke="url(#fat)" stroke-width="8" stroke-linecap="round"/>
  </g>
  <ellipse cx="0" cy="6" rx="51" ry="36" fill="url(#meatDeep)"/>
  <path d="M-46,22 C-24,40 26,40 46,20 C34,44 -30,46 -46,22 Z" fill="#2A0A06" opacity="0.4"/>
  <ellipse cx="0" cy="6" rx="51" ry="36" fill="none" stroke="url(#fat)" stroke-width="5.5" opacity="0.75"/>
  <path d="M-26,4 C-12,-4 6,10 24,2" fill="none" stroke="#EADBC6" stroke-width="2.6" stroke-linecap="round" opacity="0.3"/>
  <path d="M-48,-8 C-36,-24 -12,-32 14,-30" fill="none" stroke="#F4E2CC" stroke-width="2" stroke-linecap="round" opacity="0.25"/>
  <ellipse cx="-14" cy="-4" rx="22" ry="11" fill="#FFF" opacity="0.09"/>
</g>
<g transform="translate(404 270) rotate(-16)" opacity="0.09">
  <rect x="-215" y="-24" width="430" height="48" rx="24" fill="#FFF" filter="url(#blurL)"/>
</g>
<path d="M320,240 C370,226 430,232 470,244" fill="none" stroke="#FFF" stroke-width="2" opacity="0.10"/>
<path d="M356,288 C396,278 444,284 478,292" fill="none" stroke="#FFF" stroke-width="1.6" opacity="0.07"/>
<g transform="translate(266 372) rotate(-14)" opacity="0.85">
<line x1="0" y1="0" x2="96" y2="0" stroke="#55703F" stroke-width="3" stroke-linecap="round"/><line x1="12" y1="0" x2="21" y2="-13" stroke="#6E8F5E" stroke-width="2.6" stroke-linecap="round"/>
<line x1="12" y1="0" x2="21" y2="13" stroke="#5E7C50" stroke-width="2.6" stroke-linecap="round"/><line x1="23" y1="0" x2="32" y2="-13" stroke="#6E8F5E" stroke-width="2.6" stroke-linecap="round"/>
<line x1="23" y1="0" x2="32" y2="13" stroke="#5E7C50" stroke-width="2.6" stroke-linecap="round"/><line x1="34" y1="0" x2="43" y2="-13" stroke="#6E8F5E" stroke-width="2.6" stroke-linecap="round"/>
<line x1="34" y1="0" x2="43" y2="13" stroke="#5E7C50" stroke-width="2.6" stroke-linecap="round"/><line x1="45" y1="0" x2="54" y2="-13" stroke="#6E8F5E" stroke-width="2.6" stroke-linecap="round"/>
<line x1="45" y1="0" x2="54" y2="13" stroke="#5E7C50" stroke-width="2.6" stroke-linecap="round"/><line x1="56" y1="0" x2="65" y2="-13" stroke="#6E8F5E" stroke-width="2.6" stroke-linecap="round"/>
<line x1="56" y1="0" x2="65" y2="13" stroke="#5E7C50" stroke-width="2.6" stroke-linecap="round"/><line x1="67" y1="0" x2="76" y2="-13" stroke="#6E8F5E" stroke-width="2.6" stroke-linecap="round"/>
<line x1="67" y1="0" x2="76" y2="13" stroke="#5E7C50" stroke-width="2.6" stroke-linecap="round"/><line x1="78" y1="0" x2="87" y2="-13" stroke="#6E8F5E" stroke-width="2.6" stroke-linecap="round"/>
<line x1="78" y1="0" x2="87" y2="13" stroke="#5E7C50" stroke-width="2.6" stroke-linecap="round"/></g>
<g transform="translate(566 388) rotate(-7)">
  <rect x="-35" y="-14" width="70" height="28" rx="7" fill="#0E0B08" stroke="url(#gold)" stroke-width="1.4"/>
  <circle cx="-19" cy="0" r="4.5" fill="none" stroke="url(#gold)" stroke-width="1.4" opacity="0.9"/>
  <line x1="-6" y1="-4" x2="22" y2="-4" stroke="url(#gold)" stroke-width="2" opacity="0.65"/>
  <line x1="-6" y1="4" x2="12" y2="4" stroke="url(#gold)" stroke-width="2" opacity="0.38"/>
</g>
</g>
<rect width="800" height="600" fill="url(#vig)"/>
</svg>
