<svg xmlns="http://www.w3.org/2000/svg" viewBox="0 0 800 600">
<defs>
  <radialGradient id="bg" cx="50%" cy="40%" r="78%">
    <stop offset="0%" stop-color="#281C15"/>
    <stop offset="55%" stop-color="#150E0A"/>
    <stop offset="100%" stop-color="#0A0605"/>
  </radialGradient>
  <radialGradient id="vig" cx="50%" cy="42%" r="72%">
    <stop offset="0%" stop-color="#000" stop-opacity="0"/>
    <stop offset="70%" stop-color="#000" stop-opacity="0"/>
    <stop offset="100%" stop-color="#000" stop-opacity="0.42"/>
  </radialGradient>
  <linearGradient id="tray" x1="0" y1="0" x2="0" y2="1">
    <stop offset="0%" stop-color="#323236"/>
    <stop offset="10%" stop-color="#17171A"/>
    <stop offset="100%" stop-color="#060607"/>
  </linearGradient>
  <linearGradient id="trayIn" x1="0" y1="0" x2="0" y2="1">
    <stop offset="0%" stop-color="#0C0C0E"/>
    <stop offset="18%" stop-color="#1C1C20"/>
    <stop offset="100%" stop-color="#0A0A0C"/>
  </linearGradient>
  <linearGradient id="meat" x1="0" y1="0" x2="0.8" y2="1">
    <stop offset="0%" stop-color="#A84838"/>
    <stop offset="55%" stop-color="#77241B"/>
    <stop offset="100%" stop-color="#4C130E"/>
  </linearGradient>
  <linearGradient id="meatDeep" x1="0" y1="0" x2="0.8" y2="1">
    <stop offset="0%" stop-color="#8E3325"/>
    <stop offset="100%" stop-color="#3E0F0A"/>
  </linearGradient>
  <linearGradient id="fat" x1="0" y1="0" x2="0" y2="1">
    <stop offset="0%" stop-color="#F0E4D1"/>
    <stop offset="100%" stop-color="#D3BEA0"/>
  </linearGradient>
  <linearGradient id="chick" x1="0" y1="0" x2="0.7" y2="1">
    <stop offset="0%" stop-color="#E7C69C"/>
    <stop offset="60%" stop-color="#CBA070"/>
    <stop offset="100%" stop-color="#A97E4E"/>
  </linearGradient>
  <linearGradient id="gold" x1="0" y1="0" x2="0" y2="1">
    <stop offset="0%" stop-color="#E7CD92"/>
    <stop offset="100%" stop-color="#A57C3D"/>
  </linearGradient>
  <linearGradient id="boxTop" x1="0" y1="0" x2="0" y2="1">
    <stop offset="0%" stop-color="#37373E"/>
    <stop offset="100%" stop-color="#1C1C22"/>
  </linearGradient>
  <linearGradient id="boxFront" x1="0" y1="0" x2="0" y2="1">
    <stop offset="0%" stop-color="#1B1B20"/>
    <stop offset="100%" stop-color="#0B0B0E"/>
  </linearGradient>
  <linearGradient id="boxSide" x1="0" y1="0" x2="1" y2="0">
    <stop offset="0%" stop-color="#101014"/>
    <stop offset="100%" stop-color="#060608"/>
  </linearGradient>
  <linearGradient id="glossV" x1="0" y1="0" x2="0" y2="1">
    <stop offset="0%" stop-color="#FFF" stop-opacity="0.10"/>
    <stop offset="100%" stop-color="#FFF" stop-opacity="0"/>
  </linearGradient>
  <filter id="blurL" x="-60%" y="-60%" width="220%" height="220%"><feGaussianBlur stdDeviation="16"/></filter>
  <filter id="blurS" x="-60%" y="-60%" width="220%" height="220%"><feGaussianBlur stdDeviation="6"/></filter>
</defs>
<rect width="800" height="600" fill="url(#bg)"/>
<ellipse cx="400" cy="250" rx="480" ry="320" fill="#C9A45C" opacity="0.045"/>
<ellipse cx="400" cy="452" rx="430" ry="115" fill="#33221668" filter="url(#blurL)"/>
<g transform="translate(0 -58)">
<ellipse cx="600" cy="180" rx="260" ry="190" fill="#C96A3C" opacity="0.06"/>
<ellipse cx="400" cy="432" rx="244.4" ry="26" fill="#000" opacity="0.55" filter="url(#blurL)"/>
<rect x="165" y="182" width="470" height="236" rx="26" fill="url(#tray)"/>
<rect x="166.5" y="183.5" width="467" height="233" rx="25" fill="none" stroke="#4A4A52" stroke-opacity="0.55" stroke-width="1.6"/>
<rect x="180" y="195" width="440" height="209" rx="15" fill="url(#trayIn)"/>
<rect x="180" y="195" width="440" height="14" rx="7" fill="#000" opacity="0.35"/>
<path d="M191,195 H609" stroke="#5A5A64" stroke-opacity="0.35" stroke-width="1.4"/>
<g transform="translate(392 262) rotate(-9)">
<ellipse cx="0" cy="40" rx="150" ry="12" fill="#000" opacity="0.35" filter="url(#blurS)"/>
<line x1="-150" y1="0" x2="158" y2="0" stroke="url(#gold)" stroke-width="5" stroke-linecap="round"/><rect x="-99" y="-22" width="42" height="42" rx="9" fill="url(#meat)" stroke="#0B0705" stroke-opacity="0.5" stroke-width="1.2"/>
<line x1="-90" y1="12" x2="-68" y2="8" stroke="#120A06" stroke-width="3.5" stroke-linecap="round" opacity="0.6"/>
<ellipse cx="-84" cy="-10" rx="12" ry="6" fill="#FFF" opacity="0.12"/><rect x="-47" y="-22" width="42" height="42" rx="9" fill="#3A2A1E" stroke="#0B0705" stroke-opacity="0.5" stroke-width="1.2"/>
<line x1="-38" y1="12" x2="-16" y2="8" stroke="#120A06" stroke-width="3.5" stroke-linecap="round" opacity="0.6"/>
<ellipse cx="-32" cy="-10" rx="12" ry="6" fill="#FFF" opacity="0.12"/><rect x="5" y="-22" width="42" height="42" rx="9" fill="url(#meatDeep)" stroke="#0B0705" stroke-opacity="0.5" stroke-width="1.2"/>
<line x1="14" y1="12" x2="36" y2="8" stroke="#120A06" stroke-width="3.5" stroke-linecap="round" opacity="0.6"/>
<ellipse cx="20" cy="-10" rx="12" ry="6" fill="#FFF" opacity="0.12"/><rect x="57" y="-22" width="42" height="42" rx="9" fill="#4A3524" stroke="#0B0705" stroke-opacity="0.5" stroke-width="1.2"/>
<line x1="66" y1="12" x2="88" y2="8" stroke="#120A06" stroke-width="3.5" stroke-linecap="round" opacity="0.6"/>
<ellipse cx="72" cy="-10" rx="12" ry="6" fill="#FFF" opacity="0.12"/></g>
<g transform="translate(412 338) rotate(-3)">
<ellipse cx="0" cy="40" rx="150" ry="12" fill="#000" opacity="0.35" filter="url(#blurS)"/>
<line x1="-150" y1="0" x2="158" y2="0" stroke="url(#gold)" stroke-width="5" stroke-linecap="round"/><rect x="-99" y="-22" width="42" height="42" rx="9" fill="url(#meat)" stroke="#0B0705" stroke-opacity="0.5" stroke-width="1.2"/>
<line x1="-90" y1="12" x2="-68" y2="8" stroke="#120A06" stroke-width="3.5" stroke-linecap="round" opacity="0.6"/>
<ellipse cx="-84" cy="-10" rx="12" ry="6" fill="#FFF" opacity="0.12"/><rect x="-47" y="-22" width="42" height="42" rx="9" fill="#3A2A1E" stroke="#0B0705" stroke-opacity="0.5" stroke-width="1.2"/>
<line x1="-38" y1="12" x2="-16" y2="8" stroke="#120A06" stroke-width="3.5" stroke-linecap="round" opacity="0.6"/>
<ellipse cx="-32" cy="-10" rx="12" ry="6" fill="#FFF" opacity="0.12"/><rect x="5" y="-22" width="42" height="42" rx="9" fill="url(#meatDeep)" stroke="#0B0705" stroke-opacity="0.5" stroke-width="1.2"/>
<line x1="14" y1="12" x2="36" y2="8" stroke="#120A06" stroke-width="3.5" stroke-linecap="round" opacity="0.6"/>
<ellipse cx="20" cy="-10" rx="12" ry="6" fill="#FFF" opacity="0.12"/><rect x="57" y="-22" width="42" height="42" rx="9" fill="#4A3524" stroke="#0B0705" stroke-opacity="0.5" stroke-width="1.2"/>
<line x1="66" y1="12" x2="88" y2="8" stroke="#120A06" stroke-width="3.5" stroke-linecap="round" opacity="0.6"/>
<ellipse cx="72" cy="-10" rx="12" ry="6" fill="#FFF" opacity="0.12"/></g>
<g transform="translate(238 390) rotate(6)">
  <rect x="-35" y="-14" width="70" height="28" rx="7" fill="#0E0B08" stroke="url(#gold)" stroke-width="1.4"/>
  <circle cx="-19" cy="0" r="4.5" fill="none" stroke="url(#gold)" stroke-width="1.4" opacity="0.9"/>
  <line x1="-6" y1="-4" x2="22" y2="-4" stroke="url(#gold)" stroke-width="2" opacity="0.65"/>
  <line x1="-6" y1="4" x2="12" y2="4" stroke="url(#gold)" stroke-width="2" opacity="0.38"/>
</g>
</g>
<rect width="800" height="600" fill="url(#vig)"/>
</svg>
