<svg xmlns="http://www.w3.org/2000/svg" viewBox="0 0 800 600">
<defs>
  <radialGradient id="bg" cx="50%" cy="40%" r="78%">
    <stop offset="0%" stop-color="#281C15"/>
    <stop offset="55%" stop-color="#150E0A"/>
    <stop offset="100%" stop-color="#0A0605"/>
  </radialGradient>
  <radialGradient id="vig" cx="50%" cy="42%" r="72%">
    <stop offset="0%" stop-color="#000" stop-opacity="0"/>
    <stop offset="70%" stop-color="#000" stop-opacity="0"/>
    <stop offset="100%" stop-color="#000" stop-opacity="0.42"/>
  </radialGradient>
  <linearGradient id="tray" x1="0" y1="0" x2="0" y2="1">
    <stop offset="0%" stop-color="#323236"/>
    <stop offset="10%" stop-color="#17171A"/>
    <stop offset="100%" stop-color="#060607"/>
  </linearGradient>
  <linearGradient id="trayIn" x1="0" y1="0" x2="0" y2="1">
    <stop offset="0%" stop-color="#0C0C0E"/>
    <stop offset="18%" stop-color="#1C1C20"/>
    <stop offset="100%" stop-color="#0A0A0C"/>
  </linearGradient>
  <linearGradient id="meat" x1="0" y1="0" x2="0.8" y2="1">
    <stop offset="0%" stop-color="#A84838"/>
    <stop offset="55%" stop-color="#77241B"/>
    <stop offset="100%" stop-color="#4C130E"/>
  </linearGradient>
  <linearGradient id="meatDeep" x1="0" y1="0" x2="0.8" y2="1">
    <stop offset="0%" stop-color="#8E3325"/>
    <stop offset="100%" stop-color="#3E0F0A"/>
  </linearGradient>
  <linearGradient id="fat" x1="0" y1="0" x2="0" y2="1">
    <stop offset="0%" stop-color="#F0E4D1"/>
    <stop offset="100%" stop-color="#D3BEA0"/>
  </linearGradient>
  <linearGradient id="chick" x1="0" y1="0" x2="0.7" y2="1">
    <stop offset="0%" stop-color="#E7C69C"/>
    <stop offset="60%" stop-color="#CBA070"/>
    <stop offset="100%" stop-color="#A97E4E"/>
  </linearGradient>
  <linearGradient id="gold" x1="0" y1="0" x2="0" y2="1">
    <stop offset="0%" stop-color="#E7CD92"/>
    <stop offset="100%" stop-color="#A57C3D"/>
  </linearGradient>
  <linearGradient id="boxTop" x1="0" y1="0" x2="0" y2="1">
    <stop offset="0%" stop-color="#37373E"/>
    <stop offset="100%" stop-color="#1C1C22"/>
  </linearGradient>
  <linearGradient id="boxFront" x1="0" y1="0" x2="0" y2="1">
    <stop offset="0%" stop-color="#1B1B20"/>
    <stop offset="100%" stop-color="#0B0B0E"/>
  </linearGradient>
  <linearGradient id="boxSide" x1="0" y1="0" x2="1" y2="0">
    <stop offset="0%" stop-color="#101014"/>
    <stop offset="100%" stop-color="#060608"/>
  </linearGradient>
  <linearGradient id="glossV" x1="0" y1="0" x2="0" y2="1">
    <stop offset="0%" stop-color="#FFF" stop-opacity="0.10"/>
    <stop offset="100%" stop-color="#FFF" stop-opacity="0"/>
  </linearGradient>
  <filter id="blurL" x="-60%" y="-60%" width="220%" height="220%"><feGaussianBlur stdDeviation="16"/></filter>
  <filter id="blurS" x="-60%" y="-60%" width="220%" height="220%"><feGaussianBlur stdDeviation="6"/></filter>
</defs>
<rect width="800" height="600" fill="url(#bg)"/>
<ellipse cx="400" cy="250" rx="480" ry="320" fill="#C9A45C" opacity="0.045"/>
<ellipse cx="400" cy="452" rx="430" ry="115" fill="#33221668" filter="url(#blurL)"/>
<g transform="translate(0 -58)">
<ellipse cx="392" cy="454" rx="244.4" ry="26" fill="#000" opacity="0.55" filter="url(#blurL)"/>
<rect x="157" y="248" width="470" height="192" rx="26" fill="url(#tray)"/>
<rect x="158.5" y="249.5" width="467" height="189" rx="25" fill="none" stroke="#4A4A52" stroke-opacity="0.55" stroke-width="1.6"/>
<rect x="172" y="261" width="440" height="165" rx="15" fill="url(#trayIn)"/>
<rect x="172" y="261" width="440" height="14" rx="7" fill="#000" opacity="0.35"/>
<path d="M183,261 H601" stroke="#5A5A64" stroke-opacity="0.35" stroke-width="1.4"/>
<g transform="translate(474 338) rotate(8) scale(0.78)">
  <ellipse cx="4" cy="66" rx="98" ry="18" fill="#000" opacity="0.4" filter="url(#blurS)"/>
  <path d="M-95,10 C-88,-38 -30,-58 28,-50 C78,-43 102,-12 96,30 C90,66 40,88 -14,82 C-62,77 -101,52 -95,10 Z" fill="url(#meatDeep)"/>
  <path d="M-90,34 C-70,66 -20,84 30,76 C-10,88 -70,80 -90,34 Z" fill="#2A0A06" opacity="0.45"/>
  <path d="M-88,-14 C-68,-44 -16,-56 34,-47" fill="none" stroke="url(#fat)" stroke-width="11" stroke-linecap="round" opacity="0.9"/>
  <path d="M-95,8 C-90,-30 -50,-52 8,-52" fill="none" stroke="#F4E2CC" stroke-width="2.4" stroke-linecap="round" opacity="0.28"/>
  <path d="M-58,14 C-38,4 -16,20 8,10 M-30,44 C-10,34 14,48 38,38 M22,-8 C42,-16 58,-2 72,8"
        fill="none" stroke="#EADBC6" stroke-width="3" stroke-linecap="round" opacity="0.38"/>
  <ellipse cx="-18" cy="-6" rx="52" ry="26" fill="#FFF" opacity="0.07"/>
</g>
<ellipse cx="420" cy="318" rx="197.6" ry="26" fill="#000" opacity="0.55" filter="url(#blurL)"/>
<rect x="230" y="148" width="380" height="156" rx="22" fill="url(#tray)"/>
<rect x="231.5" y="149.5" width="377" height="153" rx="21" fill="none" stroke="#4A4A52" stroke-opacity="0.55" stroke-width="1.6"/>
<rect x="245" y="161" width="350" height="129" rx="11" fill="url(#trayIn)"/>
<rect x="245" y="161" width="350" height="14" rx="7" fill="#000" opacity="0.35"/>
<path d="M256,161 H584" stroke="#5A5A64" stroke-opacity="0.35" stroke-width="1.4"/>
<g transform="translate(398 220) rotate(-6) scale(0.85)">
  <ellipse cx="4" cy="66" rx="98" ry="18" fill="#000" opacity="0.4" filter="url(#blurS)"/>
  <path d="M-95,10 C-88,-38 -30,-58 28,-50 C78,-43 102,-12 96,30 C90,66 40,88 -14,82 C-62,77 -101,52 -95,10 Z" fill="url(#meat)"/>
  <path d="M-90,34 C-70,66 -20,84 30,76 C-10,88 -70,80 -90,34 Z" fill="#2A0A06" opacity="0.45"/>
  <path d="M-88,-14 C-68,-44 -16,-56 34,-47" fill="none" stroke="url(#fat)" stroke-width="11" stroke-linecap="round" opacity="0.9"/>
  <path d="M-95,8 C-90,-30 -50,-52 8,-52" fill="none" stroke="#F4E2CC" stroke-width="2.4" stroke-linecap="round" opacity="0.28"/>
  <path d="M-58,14 C-38,4 -16,20 8,10 M-30,44 C-10,34 14,48 38,38 M22,-8 C42,-16 58,-2 72,8"
        fill="none" stroke="#EADBC6" stroke-width="3" stroke-linecap="round" opacity="0.38"/>
  <ellipse cx="-18" cy="-6" rx="52" ry="26" fill="#FFF" opacity="0.07"/>
</g>
<g transform="translate(420 212) rotate(-16)" opacity="0.09">
  <rect x="-170" y="-24" width="340" height="48" rx="24" fill="#FFF" filter="url(#blurL)"/>
</g>
<path d="M336,182 C386,168 446,174 486,186" fill="none" stroke="#FFF" stroke-width="2" opacity="0.10"/>
<path d="M372,230 C412,220 460,226 494,234" fill="none" stroke="#FFF" stroke-width="1.6" opacity="0.07"/>
<g transform="translate(244 396) rotate(-16)" opacity="0.85">
<line x1="0" y1="0" x2="96" y2="0" stroke="#55703F" stroke-width="3" stroke-linecap="round"/><line x1="12" y1="0" x2="21" y2="-13" stroke="#6E8F5E" stroke-width="2.6" stroke-linecap="round"/>
<line x1="12" y1="0" x2="21" y2="13" stroke="#5E7C50" stroke-width="2.6" stroke-linecap="round"/><line x1="23" y1="0" x2="32" y2="-13" stroke="#6E8F5E" stroke-width="2.6" stroke-linecap="round"/>
<line x1="23" y1="0" x2="32" y2="13" stroke="#5E7C50" stroke-width="2.6" stroke-linecap="round"/><line x1="34" y1="0" x2="43" y2="-13" stroke="#6E8F5E" stroke-width="2.6" stroke-linecap="round"/>
<line x1="34" y1="0" x2="43" y2="13" stroke="#5E7C50" stroke-width="2.6" stroke-linecap="round"/><line x1="45" y1="0" x2="54" y2="-13" stroke="#6E8F5E" stroke-width="2.6" stroke-linecap="round"/>
<line x1="45" y1="0" x2="54" y2="13" stroke="#5E7C50" stroke-width="2.6" stroke-linecap="round"/><line x1="56" y1="0" x2="65" y2="-13" stroke="#6E8F5E" stroke-width="2.6" stroke-linecap="round"/>
<line x1="56" y1="0" x2="65" y2="13" stroke="#5E7C50" stroke-width="2.6" stroke-linecap="round"/><line x1="67" y1="0" x2="76" y2="-13" stroke="#6E8F5E" stroke-width="2.6" stroke-linecap="round"/>
<line x1="67" y1="0" x2="76" y2="13" stroke="#5E7C50" stroke-width="2.6" stroke-linecap="round"/><line x1="78" y1="0" x2="87" y2="-13" stroke="#6E8F5E" stroke-width="2.6" stroke-linecap="round"/>
<line x1="78" y1="0" x2="87" y2="13" stroke="#5E7C50" stroke-width="2.6" stroke-linecap="round"/></g>
<g transform="translate(240 404) rotate(6)">
  <rect x="-35" y="-14" width="70" height="28" rx="7" fill="#0E0B08" stroke="url(#gold)" stroke-width="1.4"/>
  <circle cx="-19" cy="0" r="4.5" fill="none" stroke="url(#gold)" stroke-width="1.4" opacity="0.9"/>
  <line x1="-6" y1="-4" x2="22" y2="-4" stroke="url(#gold)" stroke-width="2" opacity="0.65"/>
  <line x1="-6" y1="4" x2="12" y2="4" stroke="url(#gold)" stroke-width="2" opacity="0.38"/>
</g>
</g>
<rect width="800" height="600" fill="url(#vig)"/>
</svg>
